<?xml version="1.0" encoding="utf-8"?>
<!-- Generator: Adobe Illustrator 20.1.0, SVG Export Plug-In . SVG Version: 6.00 Build 0)  -->
<svg version="1.1" id="Capa_1" xmlns="http://www.w3.org/2000/svg" xmlns:xlink="http://www.w3.org/1999/xlink" x="0px" y="0px"
	 viewBox="0 0 214.4 214.4" style="enable-background:new 0 0 214.4 214.4;" xml:space="preserve">
<path d="M91.5,202c-0.5,0-1-0.2-1.4-0.6L80,191.3c0,0,0,0,0,0l-2.6-2.6c-0.8-0.8-0.8-2,0-2.8c0.8-0.8,2-0.8,2.8,0l1.2,1.2l65-65
	l-16.6-16.6l-85.1,85.1c-9.6,9.6-25.2,9.6-34.8,0l-2.7-2.7c-9.4-9.4-9.4-24.8,0-34.2l43.6-43.6C77.3,83.5,78,67.6,79.4,36
	c0.3-6.4,0.6-13.7,1.2-21.7c0.1-0.8,0.6-1.5,1.3-1.7c0.7-0.3,1.6-0.1,2.1,0.5l58.7,58.7l28-28c9.4-9.4,24.7-9.4,34.1,0l2.1,2.1
	c4.8,4.8,7.5,11.3,7.5,18.1c0,6.8-2.7,13.3-7.5,18.1L91.7,197.3l1.2,1.2c0.8,0.8,0.8,2,0,2.8C92.5,201.8,92,202,91.5,202z
	 M84.2,189.9l4.6,4.6L204.1,79.2c4.1-4.1,6.3-9.5,6.3-15.3c0-5.8-2.2-11.2-6.3-15.3l-2.1-2.1c-7.8-7.8-20.6-7.8-28.4,0l0,0l-25,25
	c0,0,0,0,0,0L38.3,181.9l0,0c-6.1,6.1-16.1,6.1-22.3,0c-3-3-4.6-6.9-4.6-11.1c0-4.2,1.6-8.2,4.6-11.1l42.1-42.1
	c24.8-24.8,36.9-26,66.2-28.8l1.6-0.2L140,74.6L84.3,19c-0.4,6.3-0.7,12-0.9,17.2c-1.4,31.6-2.2,49-30,76.8L9.9,156.5
	c-7.9,7.9-7.9,20.7,0,28.5l2.7,2.7c8,8,21.1,8,29.2,0l91.1-91.1c0,0,0,0,0,0l43.8-43.8c6.1-6.1,16.1-6.1,22.3,0
	c6.1,6.1,6.1,16.1,0,22.3L84.2,189.9z M29,152.4l-10.1,10.1c-2.2,2.2-3.4,5.2-3.4,8.3c0,3.1,1.2,6.1,3.4,8.3c4.6,4.6,12,4.6,16.6,0
	L45.6,169L29,152.4z M31.8,149.5l16.6,16.6l19.9-19.9l-16.6-16.6L31.8,149.5z M54.5,126.8l16.6,16.6l50.3-50.3
	c-26.7,2.6-37.7,4.4-60.6,27.3L54.5,126.8z M132.5,102.6l16.6,16.6l47-47c4.6-4.6,4.6-12,0-16.6c-4.6-4.6-12-4.6-16.6,0l-26.4,26.4
	L158,87c0.6,0.6,0.7,1.4,0.5,2.1c-0.3,0.7-0.9,1.2-1.7,1.3c-4.4,0.3-9,0.8-13.5,1.5L132.5,102.6z M150.3,84.9l-2.4,2.4
	c1.4-0.2,2.8-0.3,4.2-0.5L150.3,84.9z"/>
</svg>
